Coordinates
version=1
nRows=21
nColumns=28
inDegrees=yes

Units are S.I. units (second, meters, Newtons, ...)
Angles are in degrees.

endheader
time	pelvis_tilt	pelvis_list	pelvis_rotation	pelvis_tx	pelvis_ty	pelvis_tz	hip_flexion_r	hip_adduction_r	hip_rotation_r	knee_angle_r	ankle_angle_r	subtalar_angle_r	mtp_angle_r	hip_flexion_l	hip_adduction_l	hip_rotation_l	knee_angle_l	socket_flexion	socket_adduction	socket_rotation	socket_tx	socket_ty	socket_tz	foot_flex	lumbar_extension	lumbar_bending	lumbar_rotation
      0.53333333	     -2.30551776	     -5.32140753	      7.10336696	     -0.01818205	      0.95838916	      0.23212123	     27.31681032	      3.91494417	     -4.86076375	    -11.19544922	      6.32413152	    -12.23689450	     -0.24474932	    -18.44527816	     -8.22074406	     10.09712262	     -8.14995584	      0.00000000	      0.00000000	      0.00000000	      0.00000000	      0.00000000	      0.00000000	      9.51763710	     -6.32707722	      6.27304381	    -18.67254229
      0.53750000	     -2.31776932	     -5.22714900	      7.05712395	     -0.01827756	      0.95834080	      0.23224067	     27.41391392	      3.82181202	     -4.90212184	    -11.35972450	      6.32297699	    -12.15700398	     -0.21942782	    -18.44936082	     -8.11057334	     10.12090305	     -8.12540517	      0.00000000	      0.00000000	      0.00000000	      0.00000000	      0.00000000	      0.00000000	      9.45650260	     -6.33912425	      6.14398830	    -18.55518416
      0.54166667	     -2.24220549	     -5.40946161	      7.22182564	     -0.01181829	      0.95708871	      0.23193679	     27.55845072	      4.05658968	     -4.69426563	    -12.11117388	      6.03579613	    -12.10180055	     -0.17859159	    -18.64542234	     -8.34802769	     10.21927496	     -8.57511008	      0.00000000	      0.00000000	      0.00000000	      0.00000000	      0.00000000	      0.00000000	      9.47624320	     -6.38917804	      6.44617959	    -18.60611134
      0.54583333	     -2.13644897	     -5.56048026	      7.26384108	     -0.00527928	      0.95578793	      0.23184353	     27.82301638	      4.27760661	     -4.64888705	    -13.17137244	      5.55902466	    -12.07960047	     -0.12938459	    -18.91477606	     -8.52309483	     10.21070778	     -9.01827066	      0.00000000	      0.00000000	      0.00000000	      0.00000000	      0.00000000	      0.00000000	      9.53524504	     -6.46342684	      6.72852324	    -18.70134868
      0.55000000	     -2.45581159	     -5.40592194	      7.07585348	      0.00120614	      0.95372124	      0.23212194	     28.91921762	      4.06808809	     -5.11224342	    -14.96118306	      4.53730622	    -11.78827744	      3.50803010	    -18.75394917	     -8.25619292	      9.97345039	     -9.53495115	      0.00000000	      0.00000000	      0.00000000	      0.00000000	      0.00000000	      0.00000000	      9.61385342	     -6.08992947	      6.55210859	    -18.78514634
      0.55416667	     -2.35051995	     -5.54962178	      7.16090077	      0.00773886	      0.95257062	      0.23198543	     29.08877769	      4.28261913	     -4.92892252	    -15.88972877	      4.17890313	    -11.74121367	      3.53227556	    -18.94915792	     -8.42937083	     10.04185944	    -10.06076210	      0.00000000	      0.00000000	      0.00000000	      0.00000000	      0.00000000	      0.00000000	      9.51413783	     -6.17568299	      6.82052330	    -18.82150866
      0.55833333	     -2.52066859	     -5.41279253	      6.96575007	      0.01409250	      0.95083152	      0.23233135	     29.91053985	      4.18742305	     -4.96361741	    -17.47720682	      3.16248530	    -11.83295066	      5.63537287	    -18.86919077	     -8.18360824	      9.79552723	    -10.69955148	      0.00000000	      0.00000000	      0.00000000	      0.00000000	      0.00000000	      0.00000000	      9.53288277	     -6.00679230	      6.68283613	    -18.80636992
      0.56250000	     -2.42803541	     -5.57830424	      7.05274807	      0.02072964	      0.94976351	      0.23219009	     30.05811621	      4.41952265	     -4.74724879	    -18.38504253	      2.86386681	    -11.76362732	      5.64825548	    -18.99878600	     -8.37243872	      9.87126588	    -11.30324505	      0.00000000	      0.00000000	      0.00000000	      0.00000000	      0.00000000	      0.00000000	      9.32627379	     -6.06322478	      6.96548182	    -18.81685038
      0.56666667	     -2.69139352	     -5.39055544	      6.72556525	      0.02706651	      0.94793968	      0.23275806	     31.00880906	      4.33806558	     -4.58513785	    -20.07123304	      2.17142985	    -11.71957456	      6.21255755	    -18.77587300	     -8.01469725	      9.57079441	    -12.05029551	      0.00000000	      0.00000000	      0.00000000	      0.00000000	      0.00000000	      0.00000000	      9.25733137	     -5.80800967	      6.74987526	    -18.68956850
      0.57083333	     -2.59672913	     -5.56090504	      6.79672495	      0.03373402	      0.94699517	      0.23264238	     31.14500460	      4.56660550	     -4.40564442	    -20.98120156	      1.87245311	    -11.64753517	      6.24121410	    -18.83755110	     -8.18909562	      9.57349011	    -12.77927130	      0.00000000	      0.00000000	      0.00000000	      0.00000000	      0.00000000	      0.00000000	      9.00023996	     -5.86222865	      7.03018744	    -18.69806735
      0.57500000	     -2.72188295	     -5.45210565	      6.52434319	      0.04018397	      0.94553231	      0.23320545	     31.84618862	      4.56299281	     -4.33831974	    -22.49860092	      1.15880249	    -11.58672667	      6.56475499	    -18.68639822	     -7.94461816	      9.29037409	    -13.62208126	      0.00000000	      0.00000000	      0.00000000	      0.00000000	      0.00000000	      0.00000000	      8.81922512	     -5.74569816	      6.88590019	    -18.70546435
      0.57916667	     -3.17997002	     -5.34792042	      6.34790073	      0.04670468	      0.94371975	      0.23347728	     32.80256897	      4.51217417	     -4.03083151	    -23.87643316	      0.71678500	    -11.63201858	      7.69510423	    -18.06842406	     -7.68982705	      9.10407965	    -14.60522082	      0.00000000	      0.00000000	      0.00000000	      0.00000000	      0.00000000	      0.00000000	      8.59321644	     -5.20764294	      6.79026222	    -18.51853107
      0.58333333	     -3.19868461	     -5.37162711	      6.26784631	      0.05325970	      0.94265772	      0.23363001	     33.17534709	      4.58940741	     -3.93440935	    -25.01440810	      0.11827643	    -11.81168838	      9.43201251	    -17.89642718	     -7.63751100	      8.92624645	    -15.58701020	      0.00000000	      0.00000000	      0.00000000	      0.00000000	      0.00000000	      0.00000000	      8.30839775	     -5.17008301	      6.86561447	    -18.54542079
      0.58750000	     -3.08210757	     -5.55482401	      6.31176809	      0.05997137	      0.94202054	      0.23363043	     33.22432070	      4.84224094	     -3.80157718	    -25.85579564	     -0.07408867	    -11.74584176	      9.43537960	    -17.82195591	     -7.80793859	      8.81619473	    -16.56657244	      0.00000000	      0.00000000	      0.00000000	      0.00000000	      0.00000000	      0.00000000	      7.85301693	     -5.25299272	      7.14967378	    -18.53985255
      0.59166667	     -3.19884253	     -5.50156668	      6.10135580	      0.06649943	      0.94085811	      0.23404682	     33.76952241	      4.87783609	     -3.70792319	    -27.17404471	     -0.42721771	    -11.69646466	      9.48231051	    -17.48880419	     -7.63618088	      8.41250270	    -17.68297359	      0.00000000	      0.00000000	      0.00000000	      0.00000000	      0.00000000	      0.00000000	      7.50394438	     -5.12512019	      7.11330769	    -18.53784621
      0.59583333	     -3.45881138	     -5.52282323	      5.97584062	      0.07307685	      0.93968140	      0.23439157	     34.33589960	      4.98807687	     -3.48121169	    -28.27140353	     -0.50969826	    -11.68043950	      9.62190569	    -16.89999818	     -7.55953847	      8.11513805	    -18.91191741	      0.00000000	      0.00000000	      0.00000000	      0.00000000	      0.00000000	      0.00000000	      7.06371382	     -4.80198379	      7.12586523	    -18.45401330
      0.60000000	     -3.51661706	     -5.62627169	      5.88226099	      0.07973130	      0.93885129	      0.23468118	     34.65017978	      5.17102682	     -3.40056055	    -29.31204932	     -0.60953213	    -11.67910613	      9.72143980	    -16.51391143	     -7.60700620	      7.73251684	    -20.14973863	      0.00000000	      0.00000000	      0.00000000	      0.00000000	      0.00000000	      0.00000000	      6.62813502	     -4.70620318	      7.26528948	    -18.44407808
      0.60416667	     -3.38410638	     -5.81104468	      5.90853206	      0.08635384	      0.93853851	      0.23473365	     34.58086641	      5.43474769	     -3.30193700	    -30.01783913	     -0.66812385	    -11.63377820	      9.74882456	    -16.26411383	     -7.78222324	      7.48767024	    -21.40525590	      0.00000000	      0.00000000	      0.00000000	      0.00000000	      0.00000000	      0.00000000	      5.98280945	     -4.82004784	      7.53605527	    -18.42612353
      0.60833333	     -3.74709109	     -5.86516561	      5.71436220	      0.09292253	      0.93739050	      0.23526672	     35.19866420	      5.60327545	     -3.10030391	    -31.04381388	     -0.55652075	    -11.71221978	      9.92524816	    -15.41940007	     -7.75058330	      6.93677824	    -22.88115469	      0.00000000	      0.00000000	      0.00000000	      0.00000000	      0.00000000	      0.00000000	      5.50562489	     -4.39432407	      7.56665268	    -18.39846102
      0.61250000	     -3.59162549	     -6.04345756	      5.74654350	      0.09949939	      0.93724111	      0.23543205	     35.07243073	      5.85765513	     -3.07463660	    -31.71660589	     -0.58881156	    -11.68330348	      9.95001864	    -15.10291574	     -7.96460291	      6.53668241	    -24.25573087	      0.00000000	      0.00000000	      0.00000000	      0.00000000	      0.00000000	      0.00000000	      4.81325057	     -4.53483746	      7.79875931	    -18.38383932
      0.61666667	     -3.72366195	     -6.30786897	      5.58821203	      0.10620633	      0.93655864	      0.23590617	     35.32258250	      6.23550833	     -3.08125318	    -32.52101951	     -0.32565737	    -11.84186720	     10.04189109	    -14.44851536	     -8.23674819	      5.78780234	    -25.79853943	      0.00000000	      0.00000000	      0.00000000	      0.00000000	      0.00000000	      0.00000000	      4.43794797	     -4.33382214	      8.10886332	    -18.38391692
